<svg width="420" height="420" viewBox="0 0 420 420" fill="none" xmlns="http://www.w3.org/2000/svg">
<rect width="420" height="420" rx="10" fill="white"/>
<path d="M410 0H10C4.48 0 0 4.48 0 10V410C0 415.52 4.48 420 10 420H410C415.52 420 420 415.52 420 410V10C420 4.48 415.52 0 410 0ZM360 95L341.79 116.97C340.64 118.11 340 119.65 340 121.25V287.5C340 289.1 340.64 290.64 341.79 291.78L360 315.46V320H260V315.46L288.21 291.78C289.36 290.64 290 289.1 290 287.5V138.79L208.48 320H208.47H193.04L110 143.75V274.83C110 277.03 110.76 279.16 112.15 280.88L140 315.46V320H60V315.46L87.83 281.08C89.23 279.36 90 277.21 90 275V123.88C90 122.46 89.5 121.09 88.58 120L70 95V90H140.97L217.21 251.83L290.02 90H360V95Z" fill="black"/>
</svg>
